<svg xmlns="http://www.w3.org/2000/svg" height="378.667" width="378.667" xml:space="preserve"><path style="fill:#268acb;fill-opacity:1;fill-rule:evenodd;stroke:none" d="m262.219 1522.45 459.523 25.43c15.309.85 30.906-12.84 27.871-27.87-32.929-163.24-27.109-324.38 8.711-483.91 3.36-14.96-12.543-27.87-27.871-27.87H248.285c-15.332 0-26.18 18.01-21.949 32.75 36.621 127.58 46.184 270.97 12.191 454.3-2.793 15.07 8.383 26.33 23.692 27.17" transform="matrix(.13333 0 0 -.13333 0 378.667)"/><path style="fill:#fff;fill-opacity:1;fill-rule:evenodd;stroke:none" d="M374.047 1455.56c11.16 0 20.207-9.04 20.207-20.2s-9.047-20.22-20.207-20.22-20.207 9.06-20.207 20.22c0 11.16 9.047 20.2 20.207 20.2zm208.23-89.35c-.082 10.73 8.551 19.5 19.282 19.58 10.734.09 19.504-8.54 19.586-19.28l.007-.69-.004-.15h.004v-.69h.078c0-37.14-15.054-70.75-39.386-95.09-24.34-24.34-57.957-39.39-95.094-39.39-37.129 0-70.75 15.05-95.086 39.39s-39.391 57.95-39.391 95.09h.075l.004.67c0 10.74 8.699 19.44 19.433 19.44 10.735 0 19.434-8.7 19.434-19.44v-.67h.074c0-26.36 10.684-50.23 27.957-67.5 17.273-17.28 41.141-27.96 67.5-27.96 26.363 0 50.23 10.68 67.504 27.96 17.273 17.27 27.957 41.14 27.957 67.5h.078l-.004.51v.03zm17.18 89.35c11.16 0 20.203-9.04 20.203-20.2s-9.043-20.22-20.203-20.22-20.207 9.06-20.207 20.22c0 11.16 9.047 20.2 20.207 20.2" transform="matrix(.13333 0 0 -.13333 0 378.667)"/><path style="fill:#8fc43f;fill-opacity:1;fill-rule:evenodd;stroke:none" d="m451.129 1553.28-20.902 175.59 9.75 10.1c.441-.92.906-1.74 1.398-2.44 6.957 3.46 24.98 13.64 37.5 20.77 4.133-4.39 10-7.14 16.508-7.14 6.894 0 13.07 3.08 17.222 7.94l43.606-9.44 11.977-7.6s17.117-146.13 21.589-185.95l-137.574-7.62zm16.348 237.33-14.954 25.35s6.446 2.79 10.102 1.22c3.66-1.56 8.016-3.83 10.277-2.78 2.266 1.04 10.453 9.58 13.938 10.8 3.484 1.22 4.527 1.22 4.527 1.22s10.801-3.31 13.414-5.92c2.614-2.62 4.008-3.84 6.621-2.79 2.614 1.04 10.102 7.14 13.063 7.49 2.965.35 4.879.17 4.879.17l-8.074-30.95c-3.469-1.96-6.844-3.88-9.875-5.6a22.596 22.596 0 0 1-16.012 6.63c-6.578 0-12.496-2.8-16.633-7.28l-11.273 2.44" transform="matrix(.13333 0 0 -.13333 0 378.667)"/><path style="fill:#1eac4b;fill-opacity:1;fill-rule:evenodd;stroke:none" d="M434.059 1797.85c-2-4.4-.844-49.78 7.316-61.32 6.957 3.46 24.98 13.64 37.5 20.77 4.133-4.39 10-7.14 16.508-7.14 6.894 0 13.07 3.08 17.222 7.94l44.102-9.55c2.004 4.4.844 49.78-7.316 61.32-7.051-3.51-25.457-13.91-37.996-21.05a22.596 22.596 0 0 1-16.012 6.63c-6.578 0-12.496-2.8-16.633-7.28l-44.691 9.68" transform="matrix(.13333 0 0 -.13333 0 378.667)"/><path style="fill:#df3286;fill-opacity:1;fill-rule:evenodd;stroke:none" d="m543.488 1691.2 61.274-13.74 2.078-.46h-.004l-2.074.46-27.59-123.05-78.43-4.35 29.469 131.46c1.539 6.86 8.414 11.22 15.277 9.68zm139.168-31.2 56.567-12.68c6.863-1.53 11.218-8.41 9.679-15.28l-15.464-68.99-78.434-4.34 22.625 100.92c1.711.08 3.387.21 5.027.37" transform="matrix(.13333 0 0 -.13333 0 378.667)"/><path style="fill:#ef9720;fill-opacity:1;fill-rule:evenodd;stroke:none" d="m604.762 1677.46 2.078-.46c-10.426 7.76-37.246 25.49-30.75 40.28 8.074 18.38 28.629 16.69 40.531 5.32 11.899-11.37 18.524-30.82 19.246-42.52 0 0 7.656 2.39 13.395-.44 5.738-2.82 6.781-3.34 6.781-3.34s28.762 36.72 48.18 29.43c19.418-7.29 24.843-22.6 19.297-29.26-5.18-6.22-22.106-15.68-45.891-16.84l-22.625-100.92-77.832-4.3zm16.187 7.53s-6.394 24.86-15.133 29.16c-8.738 4.3-14.121 2.57-16.625-2.51-2.503-5.09 14.278-16.75 31.758-26.65zm84.735 5.6s6.269-5.03 3.886-8.88c-2.379-3.85-23.996-8.28-28.613-8.44-4.613-.15-10.141.14-10.141.14s13.313 12.24 20.504 16.31c7.192 4.08 11.75 2.8 14.364.87M247.582 1617.21l73.152 17.66 2.477.59-2.477-.59 22.547-93.41-91.957-5.09-15.047 62.34c-1.976 8.2 3.11 16.52 11.305 18.5zm166.148 40.1 67.532 16.3c8.195 1.98 16.519-3.11 18.496-11.3l26.722-110.71-91.953-5.09-26.004 107.74c1.797.99 3.528 2.02 5.207 3.06" transform="matrix(.13333 0 0 -.13333 0 378.667)"/><path style="fill:#e41f29;fill-opacity:1;fill-rule:evenodd;stroke:none" d="m320.734 1634.87 2.477.59c-15.313 2.83-53.535 7.7-54.375 27.04-1.047 24.04 21.949 33.1 40.762 27.18 18.808-5.93 36.23-23.35 43.199-35.54 0 0 6.969 6.62 14.633 6.62h9.054s11.5 54.7 36.235 57.13c24.734 2.44 38.672-11.14 36.234-21.25-2.273-9.43-15.469-28.55-40.43-42.39l26.004-107.74-91.246-5.05zm13.422 16.66s-20.031 23.34-31.703 23.34c-11.668 0-16.547-4.71-16.547-11.5s24.211-10.45 48.25-11.84zm88.145 50.86s9.406-2.09 8.883-7.49c-.524-5.4-21.426-21.6-26.301-24.21-4.879-2.62-10.977-5.23-10.977-5.23s7.84 20.21 13.414 28.4c5.575 8.18 11.149 9.23 14.981 8.53" transform="matrix(.13333 0 0 -.13333 0 378.667)"/><path style="fill:#268acb;fill-opacity:1;fill-rule:evenodd;stroke:none" d="M1027.99 1550.97c91.58 0 165.83-74.25 165.83-165.83 0-91.59-74.25-165.84-165.83-165.84-91.592 0-165.834 74.25-165.834 165.84v257.11c21.762 23.71 47.727 38.3 77.848 39.71v-282.19c0-69.05 26.98-127.32 80.216-127.32 62.24 0 98.86 50.45 98.86 112.69 0 62.23-50.45 112.69-112.69 112.69-11.206 0-22.027-1.64-32.242-4.69 0 0 14.172 36.84 41.182 57.35 4.18.31 8.4.48 12.66.48zm1154.96 175.05c16.7 0 31.91-6.4 43.31-16.88l-16.13-16.14c-7.26 6.37-16.77 10.24-27.18 10.24-22.77 0-41.23-18.46-41.23-41.23 0-22.77 18.46-41.22 41.23-41.22 10.41 0 19.92 3.86 27.18 10.23l16.13-16.13c-11.4-10.49-26.61-16.89-43.31-16.89-35.36 0-64.02 28.66-64.02 64.01 0 35.35 28.66 64.01 64.02 64.01zm209.96-15.3c7.37 8.03 15.98 13.34 25.83 14.88v-20.98c4.98 5.99 19.3 20.89 38.5 20.89 21.91 0 35.01-10.56 39.78-23.25 1.11 1.54 17.17 23.25 40.35 23.25 33.34 0 44.4-21.96 44.4-51.19v-56.84c-8.38-9.13-18.39-14.75-29.99-15.3v73.34s-1.17 24.73-21.73 24.73c-31.29 0-26.85-24.66-28.41-30.5v-52.27c-8.39-9.13-18.39-14.75-29.99-15.3v73.34s-1.17 24.73-21.72 24.73c-20.56 0-27.03-14.11-27.03-26.65v-56.12c-8.38-9.13-18.38-14.75-29.99-15.3zm-83.15 15.3c35.35 0 64.01-28.66 64.01-64.01 0-35.35-28.66-64.01-64.01-64.01-35.35 0-64.01 28.66-64.01 64.01 0 35.35 28.66 64.01 64.01 64.01zm0-22.78c22.76 0 41.22-18.46 41.22-41.23 0-22.77-18.46-41.22-41.22-41.22-22.77 0-41.23 18.45-41.23 41.22s18.46 41.23 41.23 41.23zm-643.53-152.27c91.59 0 165.84-74.25 165.84-165.83 0-91.59-74.25-165.84-165.84-165.84-91.58 0-165.83 74.25-165.83 165.84v257.11c21.76 23.71 47.73 38.3 77.85 39.71v-282.19c0-69.05 26.98-127.32 80.22-127.32 62.24 0 98.86 50.45 98.86 112.69 0 62.23-50.45 112.69-112.69 112.69-11.21 0-22.03-1.64-32.24-4.69 0 0 14.17 36.84 41.18 57.35 4.18.31 8.4.48 12.65.48zm347-39.02c21.76 23.71 47.73 38.3 77.85 39.71v-292.64c-21.76-23.71-47.72-38.31-77.85-39.72v292.65zm38.93 167.57c21.54 0 39.02-17.47 39.02-39.01 0-21.56-17.48-39.03-39.02-39.03-21.55 0-39.02 17.47-39.02 39.03 0 21.54 17.47 39.01 39.02 39.01zm-168.53 58.19c21.76 23.7 47.73 38.3 77.85 39.71v-518.4c-21.76-23.71-47.73-38.31-77.85-39.72v518.41zm-508.65-225.76c21.77 23.71 47.73 38.3 77.86 39.71v-292.64c-21.77-23.71-47.73-38.31-77.86-39.72v292.65zm38.93 167.57c21.55 0 39.02-17.47 39.02-39.01 0-21.56-17.47-39.03-39.02-39.03-21.55 0-39.02 17.47-39.02 39.03 0 21.54 17.47 39.01 39.02 39.01zm-168.53 58.19c21.76 23.7 47.73 38.3 77.85 39.71v-518.4c-21.76-23.71-47.73-38.31-77.85-39.72v518.41M862.156 1012.27h40.227c27.449 0 38.922 12.2 38.922 29.92 0 11.76-7.117 20.77-19.461 23.52 9.441 2.91 14.379 11.19 14.379 20.49 0 16.55-11.762 27.73-36.164 27.73h-37.903zm55.91 30.64c0-8.71-5.66-13.07-17.57-13.07h-15.539v26.14h15.539c11.91 0 17.57-4.5 17.57-13.07zm-3.773 41.98c0-7.7-5.375-11.91-15.684-11.91h-13.652v23.38h13.652c10.309 0 15.684-3.48 15.684-11.47zm44.508 29.04v-101.66h23.238v101.66zm41.309-50.83c0-31.95 21.21-52.57 50.98-52.57 18.16 0 32.68 6.97 41.83 18.59v39.21h-42.55v-16.7h20.47v-13.95c-3.77-5.08-11.18-7.84-19.46-7.84-15.39 0-27.88 11.48-27.88 33.26 0 21.79 12.2 33.26 26.29 33.26 10.89 0 18.44-4.79 23.52-13.5l19.32 9.43c-8.86 15.11-23.96 23.39-43.72 23.39-28.61 0-48.8-20.77-48.8-52.58zm884.66-50.83H1925c27.45 0 38.92 12.2 38.92 29.92 0 11.76-7.12 20.77-19.46 23.52 9.44 2.91 14.38 11.19 14.38 20.49 0 16.55-11.77 27.73-36.17 27.73h-37.9zm55.91 30.64c0-8.71-5.66-13.07-17.57-13.07h-15.54v26.14h15.54c11.91 0 17.57-4.5 17.57-13.07zm-3.77 41.98c0-7.7-5.38-11.91-15.69-11.91h-13.65v23.38h13.65c10.31 0 15.69-3.48 15.69-11.47zm44.5 29.04v-101.66h23.24v101.66zm41.32-50.83c0-31.95 21.2-52.57 50.97-52.57 18.16 0 32.68 6.97 41.83 18.59v39.21h-42.55v-16.7h20.48v-13.95c-3.78-5.08-11.19-7.84-19.46-7.84-15.4 0-27.89 11.48-27.89 33.26 0 21.79 12.2 33.26 26.29 33.26 10.89 0 18.44-4.79 23.53-13.5l19.31 9.43c-8.86 15.11-23.96 23.39-43.71 23.39-28.62 0-48.8-20.77-48.8-52.58zm-870.92 0c0-30.94 18.44-52.57 47.35-52.57 18.44 0 32.24 8.71 39.64 20.62l-10.45 6.53c-7.7-10.74-16.7-15.54-28.76-15.54-19.75 0-34.71 14.38-34.71 40.96s14.96 40.96 34.71 40.96c12.06 0 21.06-4.79 28.76-15.54l10.45 6.53c-7.4 11.91-21.2 20.63-39.64 20.63-28.91 0-47.35-21.64-47.35-52.58zm105.22-50.83h12.77v48.36h53.16v-48.36h12.78v101.66h-12.78v-41.97h-53.16v41.97h-12.77zm188.43 50.83c0 29.48-16.55 52.58-45.31 52.58-28.9 0-45.46-23.1-45.46-52.58 0-29.48 16.56-52.57 45.46-52.57 28.76 0 45.31 23.09 45.31 52.57zm-77.7 0c0 25.13 12.63 40.96 32.39 40.96 19.6 0 32.24-15.83 32.24-40.96 0-25.12-12.64-40.96-32.24-40.96-19.76 0-32.39 15.84-32.39 40.96zm97.38 50.83v-101.66h12.78v101.66zm32.45-50.83c0-30.94 18.45-52.57 47.35-52.57 18.44 0 32.24 8.71 39.65 20.62l-10.46 6.53c-7.7-10.74-16.7-15.54-28.76-15.54-19.75 0-34.71 14.38-34.71 40.96s14.96 40.96 34.71 40.96c12.06 0 21.06-4.79 28.76-15.54l10.46 6.53c-7.41 11.91-21.21 20.63-39.65 20.63-28.9 0-47.35-21.64-47.35-52.58zm105.22-50.83h64.63v11.33h-51.85v35.44h45.46v11.32h-45.46v32.25h50.54v11.32h-63.32zm117.42 9.87c-11.91 0-22.23 4.36-31.37 14.09l-9.74-8.13c10.9-11.62 24.55-17.57 40.96-17.57 21.78 0 34.71 11.76 34.71 28.46 0 18.01-11.18 25.71-36.31 32.39-15.25 4.07-21.64 10.75-21.64 18.15 0 8.57 6.25 14.53 19.17 14.53 9.73 0 18.01-4.22 25.56-11.77l9.3 7.7c-9.01 10.02-21.49 15.69-35.15 15.69-20.04 0-31.95-10.89-31.95-26.15 0-12.19 6.83-23.23 31.23-29.48 19.17-4.94 26.72-9.87 26.72-21.78 0-9.15-8.28-16.13-21.49-16.13zm459.27-9.87h33.12c30.64 0 48.22 19.03 48.22 50.83 0 31.66-17.58 50.83-48.22 50.83h-33.12zm12.79 11.33v79.01h19.31c22.95 0 36.16-14.38 36.16-39.51 0-25.27-13.21-39.5-36.16-39.5zm87.5-11.33h64.62v11.33h-51.84v35.44h45.45v11.32h-45.45v32.25h50.54v11.32h-63.32zm113.34 101.66-39.21-101.66h14.09l9.58 26.29h45.03l9.58-26.29h14.09l-39.21 101.66zm6.98-13.36 18.44-50.68h-36.89zm61.5-88.3h63.18v11.33h-50.4v90.33h-12.78zm113.06 9.87c-11.91 0-22.22 4.36-31.37 14.09l-9.74-8.13c10.9-11.62 24.55-17.57 40.96-17.57 21.78 0 34.71 11.76 34.71 28.46 0 18.01-11.18 25.7-36.31 32.39-15.25 4.06-21.63 10.75-21.63 18.15 0 8.57 6.24 14.53 19.16 14.53 9.73 0 18.01-4.22 25.57-11.77l9.29 7.7c-9.01 10.02-21.49 15.69-35.15 15.69-20.04 0-31.95-10.89-31.95-26.15 0-12.19 6.83-23.22 31.23-29.48 19.17-4.92 26.72-9.87 26.72-21.78 0-9.15-8.28-16.13-21.49-16.13" transform="matrix(.13333 0 0 -.13333 0 378.667)"/></svg>